<svg width="36" height="36" viewBox="0 0 36 36" fill="none" xmlns="http://www.w3.org/2000/svg">
<circle cx="18" cy="18" r="17.75" fill="white" stroke="#186584" stroke-width="0.5"/>
<path d="M26.558 11.6867L26.3348 11.3454L26.0949 11.0149L25.8402 10.6946C25.4901 10.2728 25.103 9.88324 24.6835 9.53045C22.9673 8.0914 20.8057 7.29131 18.5661 7.26627C18.0078 7.25987 17.4499 7.30113 16.8985 7.38959C15.7933 7.56704 14.7266 7.93197 13.7443 8.46865C13.2544 8.73705 12.7881 9.04646 12.3505 9.39356C10.5961 10.786 9.37829 12.7432 8.90424 14.9322C8.7893 15.4685 8.72214 16.0138 8.70353 16.5619L8.69922 16.9713L8.71217 17.3792L8.74423 17.7856C8.76026 17.9203 8.77784 18.055 8.79541 18.1888C8.79541 18.0534 8.79541 17.9182 8.79541 17.7834L8.81021 17.3792L8.83888 16.9769L8.8842 16.5761C8.95373 16.0465 9.06454 15.5232 9.21563 15.0108C9.51497 13.9937 9.97277 13.0302 10.5722 12.1556L10.6859 11.9947C10.7242 11.9411 10.7605 11.8862 10.8015 11.8347L10.9218 11.6784C10.9619 11.6266 11.0007 11.5736 11.0451 11.5242L11.1709 11.3726C11.2128 11.3217 11.2538 11.2708 11.2988 11.2227L11.4302 11.076C11.4739 11.0273 11.5171 10.9785 11.5637 10.932C11.9198 10.5576 12.3049 10.212 12.7155 9.89825C12.5737 10.1224 12.4462 10.3553 12.3338 10.5956C12.237 10.801 12.1504 11.0106 12.0727 11.223C11.995 11.4355 11.9293 11.651 11.8701 11.8677C11.6474 12.7186 11.5406 13.5956 11.5526 14.475V14.475C11.4292 14.586 11.3103 14.7006 11.1959 14.8188C10.9509 15.071 10.7301 15.3457 10.5364 15.6392C10.513 15.6762 10.4908 15.7141 10.4676 15.7517L10.434 15.8084L10.4032 15.8661C10.3829 15.9052 10.3619 15.9435 10.3415 15.9826L10.2861 16.1022C10.2157 16.2623 10.163 16.4295 10.1291 16.6011C10.2293 16.2669 10.4066 15.966 10.6107 15.6913C10.8207 15.419 11.0541 15.1656 11.3084 14.9341C11.3898 14.8588 11.4727 14.7858 11.5572 14.7139C11.5572 14.7583 11.5593 14.8021 11.5618 14.8465L11.58 15.1776L11.6108 15.5069C11.6198 15.6167 11.6367 15.7258 11.65 15.8349C11.6632 15.9441 11.6808 16.0526 11.6984 16.1611L11.724 16.3239C11.7332 16.3779 11.744 16.4318 11.7548 16.4858C11.7958 16.7016 11.8445 16.9152 11.8966 17.1276C11.8892 17.0182 11.8812 16.9094 11.8723 16.8005C11.8633 16.6917 11.8599 16.5826 11.8532 16.4737C11.8507 16.4195 11.8461 16.3652 11.8439 16.3106L11.8387 16.1476C11.8353 16.039 11.8307 15.9317 11.8319 15.822C11.8331 15.7122 11.8297 15.6062 11.8319 15.4967L11.8384 15.1724L11.8532 14.8484C11.8584 14.7408 11.8689 14.6326 11.876 14.5259C11.8781 14.5012 11.88 14.4766 11.8828 14.4519C11.9572 14.3939 12.0323 14.3373 12.1081 14.282C12.3856 14.0798 12.6717 13.8874 12.9652 13.7076C13.5528 13.3505 14.1611 13.0285 14.787 12.7436C15.1005 12.6015 15.4165 12.4639 15.7369 12.3366C16.0221 12.2242 16.3099 12.1177 16.6001 12.0172L17.3502 13.8578L16.8156 11.9438C17.106 11.8454 17.3985 11.7529 17.693 11.6664C18.0238 11.5705 18.358 11.486 18.6926 11.4055C19.3631 11.2463 20.0426 11.1273 20.7274 11.0491C21.0693 11.0112 21.4127 10.9875 21.7568 10.9776C21.8508 10.9748 21.9451 10.9733 22.0392 10.9736C22.0561 10.9915 22.0734 11.01 22.0901 11.0282C22.1613 11.1086 22.2356 11.187 22.3059 11.2687L22.5161 11.5153L22.7202 11.7681C22.788 11.8523 22.8525 11.9392 22.9197 12.0249C22.9869 12.1106 23.0495 12.1985 23.1136 12.2867L23.2092 12.4186C23.24 12.463 23.2709 12.5087 23.3017 12.553C23.3633 12.6431 23.4281 12.7309 23.4867 12.8231C23.5452 12.9153 23.6066 13.0056 23.6673 13.0966C23.5785 12.8968 23.4857 12.698 23.3858 12.5025C23.3612 12.4535 23.3365 12.4048 23.3106 12.356L23.2311 12.2118C23.1781 12.1156 23.1263 12.0185 23.0692 11.9247C23.0122 11.831 22.9592 11.7339 22.8993 11.6414L22.7205 11.3639L22.5325 11.0914C22.5069 11.0547 22.481 11.0192 22.4545 10.9832C22.5655 10.9877 22.6762 10.9948 22.7868 11.0044C23.1295 11.0314 23.4691 11.0885 23.8017 11.1752C24.1329 11.2677 24.4566 11.3966 24.7402 11.5992C24.6083 11.4843 24.4641 11.3844 24.3101 11.3013L24.1936 11.2397C24.1538 11.2209 24.1137 11.2036 24.0737 11.1857L24.012 11.1589L23.9503 11.1352C23.9093 11.1194 23.8686 11.1043 23.827 11.088C23.4939 10.9753 23.1511 10.894 22.8028 10.8451C22.6391 10.8222 22.4742 10.8047 22.3096 10.7917C21.7798 10.0895 21.1576 9.46204 20.4597 8.92648C20.0999 8.65274 19.7164 8.41162 19.3138 8.20598C19.0766 8.08417 18.8318 7.97769 18.5809 7.88719C19.6264 7.87937 20.6665 8.03839 21.6618 8.35828C22.6715 8.68203 23.6238 9.16292 24.4837 9.78325C24.9169 10.0958 25.3253 10.4414 25.7052 10.817L25.9858 11.1056L26.2558 11.4071L26.5154 11.7154C26.5976 11.8227 26.6799 11.9297 26.7621 12.0363C26.6964 11.9204 26.628 11.8033 26.558 11.6867ZM15.6194 12.0394C15.2954 12.1723 14.9738 12.3113 14.6578 12.4621C14.3418 12.6129 14.031 12.776 13.7246 12.9461C13.6481 12.9887 13.5704 13.0315 13.4964 13.0759C13.4224 13.1203 13.3441 13.1632 13.2701 13.21L13.046 13.3494L12.8255 13.4928C12.5087 13.7016 12.2028 13.9266 11.909 14.1667C11.9853 13.4359 12.1378 12.7151 12.364 12.016C12.4302 11.8148 12.5041 11.617 12.5857 11.4228C12.6671 11.2289 12.7543 11.0377 12.8518 10.8528C13.0429 10.4841 13.271 10.1358 13.5325 9.81316L13.5809 9.75335C13.5972 9.73331 13.6151 9.71481 13.6321 9.6957L13.7347 9.5807C13.7674 9.54185 13.8047 9.50671 13.8408 9.47033L13.9487 9.3615C13.986 9.32666 14.0245 9.29336 14.0625 9.25914C14.1004 9.22492 14.1368 9.18977 14.1771 9.15863L14.2965 9.06429L14.356 9.01681L14.4176 8.97334C14.656 8.80082 14.9121 8.65416 15.1816 8.53586L16.4765 11.7135C16.1885 11.8161 15.9028 11.9247 15.6194 12.0394ZM19.0644 8.72485C19.4465 8.90172 19.8138 9.10916 20.1625 9.34516C20.7703 9.75901 21.3329 10.2355 21.8412 10.7667C21.4615 10.7571 21.0815 10.7668 20.7027 10.7957C20.3533 10.8212 20.0051 10.8608 19.6582 10.9144C19.3119 10.9674 18.9666 11.0294 18.6244 11.104C18.2822 11.1786 17.9428 11.2653 17.6052 11.3587C17.3108 11.4421 17.0182 11.5318 16.7271 11.6278L15.8022 8.32282C16.0877 8.25119 16.3799 8.20986 16.6741 8.1995L16.7499 8.19549H16.8261L16.9781 8.19704C17.0286 8.19704 17.0795 8.20351 17.1307 8.20598C17.1819 8.20844 17.2324 8.21245 17.2827 8.21708L17.435 8.23681C17.4855 8.24359 17.5364 8.24852 17.5867 8.25931C17.6869 8.27997 17.7892 8.2923 17.8888 8.31912C18.2934 8.414 18.6873 8.54994 19.0644 8.72485V8.72485Z" fill="#186584"/>
<path d="M28.2769 16.7773L28.2575 17.1781L28.2239 17.5758C28.2072 17.7078 28.1915 17.8397 28.1736 17.9711C27.9414 19.5366 27.3382 21.0239 26.4144 22.3089C26.337 22.4134 26.2634 22.521 26.1804 22.6215C26.0975 22.722 26.0213 22.8275 25.9338 22.9243C25.8462 23.0211 25.7673 23.1241 25.677 23.2178C25.5866 23.3115 25.5025 23.4105 25.4087 23.5002C25.0644 23.8489 24.6951 24.172 24.3038 24.467C24.4294 24.2718 24.5439 24.0697 24.6466 23.8615C24.6716 23.8113 24.6978 23.7616 24.7209 23.7111L24.7894 23.5569C24.8368 23.4555 24.8775 23.3516 24.9176 23.2486C24.9577 23.1456 24.995 23.0396 25.0311 22.9348C25.0671 22.8299 25.0989 22.7236 25.131 22.6172C25.3577 21.8221 25.4775 21.0003 25.4874 20.1736C25.6193 20.055 25.7475 19.9317 25.8718 19.8036C26.1171 19.5519 26.3384 19.2779 26.5328 18.9851C26.5566 18.9481 26.5784 18.9099 26.601 18.8726L26.6349 18.8161L26.6657 18.7579C26.686 18.7193 26.7073 18.6811 26.7274 18.6416L26.7822 18.5223C26.8525 18.3622 26.9051 18.195 26.9392 18.0235C26.839 18.3571 26.6617 18.6586 26.4576 18.9333C26.2477 19.2057 26.0142 19.4591 25.7599 19.6905C25.6715 19.7727 25.5812 19.8522 25.4889 19.9291C25.4862 19.5224 25.4589 19.1163 25.4072 18.7129C25.3955 18.6056 25.3791 18.4971 25.3625 18.3913C25.3459 18.2856 25.3317 18.1773 25.3092 18.0713C25.27 17.8589 25.2238 17.6477 25.1729 17.4386C25.1797 17.5462 25.1868 17.6545 25.1948 17.7608C25.2028 17.8672 25.2053 17.9766 25.2111 18.0827C25.213 18.1363 25.2173 18.1897 25.2185 18.243L25.2222 18.4036C25.225 18.5106 25.2278 18.6176 25.2256 18.7243C25.2256 19.1516 25.2096 19.5773 25.1667 19.9994C25.1599 20.0675 25.1529 20.1354 25.1448 20.2035C25.0832 20.25 25.0215 20.2957 24.9599 20.3407C24.6822 20.5432 24.3966 20.7348 24.1031 20.9157C23.5146 21.2736 22.9052 21.5961 22.2782 21.8813C21.9647 22.0234 21.6487 22.1609 21.3284 22.2883C21.0484 22.3988 20.7662 22.5034 20.4818 22.6021L19.621 20.4902L20.2354 22.6866C19.9499 22.7832 19.6627 22.8735 19.3737 22.9576C19.0426 23.0535 18.7087 23.1379 18.3739 23.2187C17.7039 23.3779 17.0249 23.4968 16.3406 23.5748C15.9984 23.613 15.655 23.6365 15.3115 23.6463C15.2346 23.6488 15.1577 23.6501 15.0806 23.6503C15.0325 23.6016 14.9853 23.5523 14.9385 23.5027C14.6462 23.1944 14.373 22.8685 14.1107 22.5312C14.0435 22.448 13.9803 22.3616 13.9168 22.2756L13.8215 22.1461C13.7907 22.1033 13.7598 22.0586 13.729 22.0148C13.6673 21.9269 13.6029 21.8406 13.544 21.7509C13.4851 21.6612 13.4247 21.5718 13.364 21.4827C13.4521 21.679 13.5446 21.8742 13.6442 22.066C13.6926 22.1628 13.7456 22.2568 13.7984 22.3511C13.8511 22.4455 13.9032 22.5408 13.9599 22.6329C14.1666 22.9831 14.3943 23.3205 14.6416 23.6432C14.5207 23.6386 14.4005 23.6312 14.2799 23.6207C13.9372 23.5937 13.5974 23.5365 13.2647 23.4499C12.9339 23.3574 12.6099 23.2286 12.3262 23.026C12.4583 23.1406 12.6025 23.2405 12.7563 23.3238L12.8728 23.3855C12.9126 23.4043 12.9527 23.4213 12.9928 23.4395L13.0529 23.4663L13.1145 23.49C13.1556 23.5057 13.1962 23.5208 13.2379 23.5369C13.571 23.6498 13.914 23.7312 14.2624 23.7801C14.4387 23.8048 14.6163 23.8233 14.7939 23.8362C15.3086 24.4837 15.9075 25.0596 16.5746 25.5486C16.9345 25.8112 17.3172 26.0411 17.7181 26.2355C17.9276 26.3367 18.1425 26.4262 18.3619 26.5037C17.3487 26.5187 16.3391 26.38 15.3676 26.0921C13.8499 25.6432 12.4616 24.8374 11.319 23.7422C11.2243 23.6497 11.1312 23.5548 11.0369 23.461L10.7668 23.1669L10.5066 22.8629C10.4244 22.7577 10.3415 22.6527 10.2578 22.5478C10.3263 22.6628 10.395 22.7781 10.465 22.8928L10.6894 23.2283L10.9327 23.5511C11.0181 23.6556 11.1023 23.7613 11.1889 23.8655C11.5422 24.278 11.9325 24.6572 12.3549 24.9985C13.2085 25.6869 14.1751 26.2221 15.2116 26.5801C16.2546 26.9414 17.3509 27.1243 18.4547 27.1212C19.0068 27.1198 19.558 27.0732 20.1025 26.9819C21.1936 26.7984 22.2472 26.4375 23.2216 25.9136C23.7077 25.6521 24.1717 25.3514 24.609 25.0146C25.4831 24.3401 26.2377 23.5236 26.8411 22.599C27.4407 21.6807 27.8763 20.6653 28.1286 19.598C28.2533 19.0693 28.3292 18.5303 28.3552 17.9877C28.3598 17.8524 28.362 17.717 28.3654 17.5826L28.3574 17.1781L28.3287 16.7758C28.3139 16.642 28.2979 16.5085 28.2812 16.375C28.2784 16.5103 28.2775 16.6438 28.2769 16.7773ZM21.1767 26.0505C20.8969 26.1215 20.6107 26.1641 20.3224 26.1775C20.1221 26.188 19.9214 26.1851 19.7215 26.1689C19.6216 26.1593 19.5214 26.1473 19.4215 26.1346L19.272 26.1094C19.222 26.101 19.1718 26.0939 19.1224 26.0819C18.7224 25.9977 18.332 25.8733 17.9571 25.7104C17.5771 25.5453 17.2113 25.3494 16.8632 25.1246C16.2975 24.7578 15.7707 24.3342 15.2909 23.8606C15.6491 23.868 16.0083 23.8563 16.365 23.8298C16.7144 23.8039 17.0626 23.7643 17.4095 23.7111C17.756 23.658 18.1013 23.5961 18.4433 23.5212C18.7852 23.4462 19.1249 23.3599 19.4625 23.2662C19.7517 23.184 20.0394 23.096 20.3258 23.0023L21.1767 26.0505ZM23.34 24.7158L23.2377 24.8274C23.1665 24.899 23.0949 24.9699 23.0219 25.0386C22.8736 25.1737 22.7168 25.2991 22.5523 25.4138C22.3162 25.579 22.0641 25.72 21.7998 25.8347L20.6057 22.9058C20.8887 22.8051 21.1697 22.6984 21.4486 22.5858C21.7726 22.4529 22.0942 22.3138 22.4102 22.1631C22.7262 22.0123 23.037 21.8492 23.3434 21.679C23.4196 21.6362 23.4976 21.5936 23.5719 21.5489C23.6462 21.5042 23.7239 21.462 23.7979 21.4148L24.0211 21.2758L24.2415 21.1324C24.5393 20.9348 24.8298 20.7248 25.1078 20.4995C25.0188 21.1674 24.8619 21.8245 24.6395 22.4606C24.6041 22.5583 24.5708 22.6573 24.5304 22.7526C24.49 22.8478 24.4533 22.9456 24.4092 23.039L24.3454 23.1808C24.3251 23.2283 24.3001 23.2733 24.2773 23.3195L24.2085 23.458C24.1854 23.5042 24.1589 23.5483 24.1342 23.5936C23.9377 23.9519 23.7056 24.2896 23.4415 24.6014C23.4097 24.6409 23.3743 24.677 23.34 24.7143V24.7158Z" fill="#186584"/>
<path d="M16.3241 17.3331L15.6869 17.5511L15.4871 16.9672C15.4587 16.885 15.4221 16.8385 15.3773 16.8278C15.3326 16.8177 15.2515 16.8325 15.1347 16.8725L14.6269 17.0464C14.5036 17.0886 14.429 17.1269 14.4031 17.1614C14.3772 17.1959 14.3783 17.2545 14.4065 17.3372L15.349 20.0897C15.3759 20.1684 15.4105 20.2143 15.4529 20.2275C15.4951 20.2407 15.578 20.2275 15.6995 20.184L16.2076 20.0101C16.3245 19.9705 16.3972 19.9317 16.4256 19.8939C16.4539 19.8563 16.4548 19.7983 16.4277 19.7197L16.2279 19.1355L16.8652 18.9175L17.0884 19.5699C17.2006 19.8969 17.0135 20.1435 16.527 20.3098L15.6311 20.6181C15.1446 20.7846 14.8454 20.7042 14.7336 20.377L13.7442 17.4879C13.6324 17.1609 13.8197 16.9143 14.306 16.748L15.2016 16.4397C15.6881 16.2732 15.9874 16.3536 16.0994 16.6808L16.3241 17.3331Z" fill="#1A86C0"/>
<path d="M19.489 16.1803L18.8517 16.3983L18.6729 15.8772C18.6446 15.7943 18.6082 15.7478 18.5632 15.7376C18.5182 15.7274 18.4377 15.7425 18.3208 15.7826L17.8128 15.9565C17.6894 15.9988 17.6148 16.037 17.5889 16.0712C17.563 16.1057 17.564 16.1637 17.5923 16.2472L18.5348 18.9994C18.5619 19.0783 18.5966 19.1244 18.6387 19.1375C18.6813 19.1508 18.7639 19.1375 18.8872 19.0941L19.395 18.9202C19.5118 18.8801 19.5849 18.8413 19.6133 18.804C19.6416 18.7667 19.6422 18.7084 19.6154 18.6295L19.2643 17.6037L18.8018 17.7619L18.6763 17.3953L19.776 17.018L20.2761 18.4781C20.3879 18.8055 20.2007 19.0521 19.7144 19.218L18.8188 19.5245C18.3323 19.6912 18.033 19.6109 17.921 19.2837L16.9319 16.3946C16.8197 16.0672 17.0069 15.8205 17.4934 15.6546L18.3893 15.3479C18.8754 15.1814 19.1745 15.2618 19.2868 15.589L19.489 16.1803Z" fill="#1A86C0"/>
<path d="M22.7422 15.1366L22.1049 15.3543L21.9052 14.7704C21.8768 14.6874 21.8401 14.6412 21.7954 14.631C21.7507 14.6208 21.6696 14.6356 21.5528 14.6757L21.045 14.8502C20.9217 14.8926 20.8472 14.9309 20.8215 14.9652C20.7958 14.9995 20.7969 15.0581 20.8249 15.1409L21.767 17.8935C21.7942 17.9721 21.8287 18.0168 21.8712 18.0313C21.9138 18.0458 21.9961 18.0313 22.1194 17.9878L22.6275 17.8139C22.7444 17.7739 22.8171 17.7353 22.8455 17.6977C22.8739 17.6601 22.8763 17.6021 22.8476 17.5235L22.6479 16.9377L23.2851 16.7195L23.5083 17.3718C23.6206 17.6992 23.4334 17.9459 22.9469 18.1118L22.051 18.4201C21.5645 18.5865 21.2652 18.5062 21.1532 18.179L20.1642 15.2899C20.0524 14.9626 20.2395 14.716 20.7256 14.5499L21.6212 14.2444C22.1073 14.0779 22.4066 14.1582 22.519 14.4852L22.7422 15.1366Z" fill="#1A86C0"/>
<path d="M28.1975 29.8176C28.1975 29.866 28.1783 29.9123 28.1442 29.9465C28.11 29.9806 28.0637 29.9998 28.0153 29.9998H8.96498C8.9404 30.0009 8.91587 29.9969 8.89287 29.9882C8.86986 29.9795 8.84885 29.9662 8.8311 29.9492C8.81335 29.9321 8.79923 29.9117 8.78958 29.8891C8.77994 29.8664 8.77496 29.8421 8.77496 29.8175C8.77496 29.7929 8.77994 29.7685 8.78958 29.7459C8.79923 29.7233 8.81335 29.7028 8.8311 29.6858C8.84885 29.6688 8.86986 29.6555 8.89287 29.6468C8.91587 29.6381 8.9404 29.6341 8.96498 29.6351H18.3066V28.7663H18.2952L17.9662 28.7565C17.9391 28.7565 17.9113 28.7549 17.8839 28.7531L17.8022 28.7466L17.6382 28.7333L17.3104 28.7065L16.9839 28.6637L16.8212 28.6412C16.7669 28.6341 16.7123 28.627 16.6584 28.6159L16.335 28.5564L16.1734 28.5255C16.1201 28.5147 16.0667 28.5012 16.0131 28.4889C15.1573 28.2963 14.3259 28.008 13.5346 27.6293C13.4847 27.6074 13.4363 27.5821 13.3879 27.5565L13.2421 27.481C13.1453 27.4298 13.0469 27.3814 12.9513 27.3269L12.6677 27.1622L12.5259 27.0793C12.4784 27.0525 12.4334 27.0207 12.3875 26.9914C12.204 26.8718 12.0175 26.7568 11.843 26.6252L11.5769 26.4337L11.3198 26.2296C11.1459 26.097 10.9847 25.9487 10.8194 25.8057C10.7359 25.7354 10.6582 25.658 10.5796 25.5822L10.3437 25.3553C10.2669 25.2766 10.193 25.1965 10.118 25.1169L10.0077 25.0013L9.95001 24.9415L9.89698 24.8799L9.68363 24.6311C9.64849 24.5894 9.6118 24.5487 9.57789 24.5059L9.47707 24.377C8.93554 23.691 8.47266 22.9464 8.09711 22.1572C7.35183 20.573 6.97702 18.8399 7.00109 17.0893C7.00756 16.8717 7.00941 16.654 7.02915 16.4376C7.03778 16.3288 7.04302 16.2218 7.05473 16.1123L7.09235 15.788C7.09913 15.734 7.10375 15.6798 7.11239 15.6261L7.13828 15.4652L7.1907 15.143L7.25667 14.8236L7.28997 14.6639L7.32943 14.5061L7.4099 14.1901C7.44073 14.0852 7.47156 13.9817 7.50239 13.8774L7.54956 13.7214C7.56559 13.6697 7.58471 13.6188 7.60197 13.5673L7.70957 13.259C7.74718 13.1573 7.78911 13.0567 7.82888 12.9556L7.89054 12.8042C7.91028 12.754 7.93432 12.705 7.95621 12.655L8.08909 12.3578C8.13564 12.2598 8.1859 12.1636 8.23399 12.0662L8.30675 11.9207C8.3308 11.8719 8.35916 11.8251 8.38506 11.7779L8.54322 11.493C8.59748 11.4005 8.65575 11.3081 8.71186 11.2156L8.79696 11.0765C8.82532 11.0303 8.85862 10.9862 8.88698 10.9409L9.06857 10.6711C9.13023 10.5826 9.19652 10.4957 9.26033 10.4081L9.35683 10.2774C9.38951 10.2339 9.42435 10.1923 9.45796 10.1498L9.66174 9.89602L9.87509 9.65092L9.98238 9.5276L10.094 9.40921L10.3181 9.17367L10.5515 8.94738L10.6684 8.83454L10.7898 8.72632L11.0331 8.51051L11.2847 8.30487C11.3266 8.27065 11.3682 8.23581 11.4107 8.20252L11.5405 8.10509C12.9246 7.0547 14.5304 6.33466 16.2354 6C14.544 6.35332 12.9319 7.08738 11.5726 8.1498L11.4444 8.24784C11.4021 8.28175 11.3611 8.3169 11.3195 8.35112L11.0728 8.55861L10.8333 8.77442L10.7137 8.88325L10.599 8.99671L10.369 9.22362L10.1489 9.46039L10.0385 9.57971L9.93367 9.70303L9.72402 9.94967L9.52455 10.2034C9.49156 10.2459 9.45734 10.2876 9.42528 10.331L9.33279 10.4621C9.27112 10.5499 9.20638 10.6363 9.14503 10.7247L8.96775 10.9942C8.93877 11.0398 8.90764 11.0836 8.87989 11.1299L8.79726 11.2686C8.74239 11.3611 8.68566 11.4536 8.63263 11.5461L8.47848 11.8297C8.45351 11.8769 8.42607 11.9222 8.40294 11.9721L8.33234 12.117C8.28579 12.2138 8.23646 12.3094 8.19206 12.4075L8.06134 12.7019C8.04069 12.7515 8.01726 12.7999 7.99814 12.8505L7.94018 13.0009C7.90195 13.1011 7.86156 13.2007 7.82549 13.3022L7.72252 13.6074C7.70587 13.6582 7.68737 13.7091 7.67196 13.7615L7.62756 13.9157C7.59673 14.019 7.5659 14.1216 7.53846 14.224L7.46262 14.5372L7.42501 14.6935L7.39418 14.852L7.33252 15.168L7.28411 15.4865L7.26006 15.6456C7.25267 15.6986 7.24866 15.7522 7.24218 15.8053L7.20827 16.1259C7.1981 16.2323 7.19409 16.3399 7.187 16.4468C7.16942 16.6608 7.17004 16.8754 7.16572 17.0903C7.15015 19.6856 8.03462 22.2061 9.66853 24.2226L9.76811 24.3483C9.80141 24.3893 9.83809 24.4288 9.87293 24.4692L10.0841 24.7106L10.1368 24.7723L10.1923 24.8299L10.3036 24.9455C10.3779 25.022 10.4513 25.0997 10.5268 25.1755L10.7596 25.3956C10.8373 25.4687 10.9138 25.543 10.9964 25.6115C11.1595 25.7499 11.3179 25.8929 11.4897 26.0206L11.7425 26.2173L12.0042 26.4023C12.1763 26.5287 12.3591 26.6393 12.5391 26.754C12.5841 26.7818 12.6285 26.8126 12.6748 26.8385L12.8141 26.9174L13.0916 27.0753C13.1841 27.1265 13.2815 27.1724 13.3765 27.2211L13.5192 27.2929C13.5667 27.3176 13.6142 27.342 13.6629 27.3626C14.4364 27.7225 15.2479 27.9944 16.0822 28.1732C16.1343 28.1846 16.1861 28.1972 16.2382 28.2074L16.3957 28.2345L16.7105 28.2891C16.7626 28.2992 16.8153 28.3057 16.8683 28.3119L17.0268 28.331L17.3453 28.3665L17.6637 28.3887L17.8228 28.3998L17.9024 28.4056C17.9289 28.4056 17.9557 28.4056 17.9822 28.4075L18.3016 28.4139L18.4505 28.4167H18.461C18.4832 28.4167 18.5057 28.4167 18.5282 28.4167C18.5591 28.4167 18.5899 28.4146 18.6207 28.4139C19.4718 28.401 20.3186 28.2905 21.1445 28.0844L21.4528 28.0057L21.758 27.9133L21.9103 27.8673L22.0605 27.8143L22.3614 27.7095L22.657 27.5911L22.8053 27.5313L22.9508 27.4662L23.2409 27.3355L23.5255 27.1927L23.6676 27.1212C23.7145 27.0962 23.7601 27.07 23.807 27.0441L24.0845 26.89L24.3555 26.7238L24.4911 26.6403L24.6231 26.5518L24.8867 26.3736L25.1426 26.1849L25.2705 26.0906L25.3938 25.9907L25.6405 25.7912L25.6476 25.7857C25.6695 25.7654 25.6954 25.7498 25.7237 25.7399C25.7519 25.73 25.7819 25.726 25.8117 25.7282C25.8415 25.7304 25.8706 25.7386 25.8971 25.7525C25.9236 25.7663 25.947 25.7855 25.9658 25.8087C25.9846 25.832 25.9985 25.8588 26.0065 25.8877C26.0145 25.9165 26.0165 25.9466 26.0124 25.9763C26.0083 26.0059 25.9981 26.0344 25.9826 26.0599C25.967 26.0855 25.9464 26.1075 25.922 26.1248V26.1263L25.6627 26.331L25.5329 26.4331L25.3991 26.5296L25.1315 26.7229L24.8555 26.9048L24.7177 26.9951L24.5765 27.0802L24.2932 27.2498L24.0046 27.4079C23.9562 27.4341 23.9084 27.4613 23.8597 27.4863L23.7117 27.559L23.4148 27.7036L23.1105 27.8371L22.9592 27.9034L22.805 27.9626L22.4967 28.0819L22.1856 28.1873L22.0315 28.2404L21.8733 28.2869L21.5567 28.3794L21.2354 28.4562C20.395 28.6562 19.5348 28.7611 18.671 28.7688V29.6351H28.0126C28.0367 29.6348 28.0607 29.6393 28.0832 29.6483C28.1056 29.6573 28.126 29.6707 28.1432 29.6877C28.1604 29.7047 28.1741 29.7249 28.1834 29.7472C28.1927 29.7695 28.1975 29.7935 28.1975 29.8176V29.8176Z" fill="#186584"/>
<path d="M18.5289 28.4161C18.5064 28.4161 18.4839 28.4161 18.4617 28.4161H18.4512C18.4639 28.4134 18.477 28.412 18.49 28.4121C18.5031 28.412 18.5161 28.4134 18.5289 28.4161V28.4161Z" fill="#186584"/>
</svg>
